HIERARCHY
ROOT Hips
{
	OFFSET 0.000000 97.167313 0.000000
	CHANNELS 6 Xposition Yposition Zposition Xrotation Yrotation Zrotation
	JOINT Spine
	{
		OFFSET 0.000000 13.784798 0.064400
		CHANNELS 3 Xrotation Yrotation Zrotation
		JOINT Spine1
		{
			OFFSET 0.000000 12.037903 0.404700
			CHANNELS 3 Xrotation Yrotation Zrotation
			JOINT Spine2
			{
				OFFSET 0.000000 17.795601 0.420200
				CHANNELS 3 Xrotation Yrotation Zrotation
				JOINT Neck
				{
					OFFSET 0.000000 39.131302 11.954600
					CHANNELS 3 Xrotation Yrotation Zrotation
					JOINT Head
					{
						OFFSET 0.000000 14.456192 15.627699
						CHANNELS 3 Xrotation Yrotation Zrotation
						JOINT HeadTop_End
						{
							OFFSET 0.000000 15.703506 7.603401
							CHANNELS 3 Xrotation Yrotation Zrotation
							End Site
							{
								OFFSET 0.000000 17.447403 0.000000
							}
						}
					}
				}
				JOINT LeftShoulder
				{
					OFFSET 17.399500 24.608795 1.168800
					CHANNELS 3 Xrotation Yrotation Zrotation
					JOINT LeftArm
					{
						OFFSET 18.980635 5.765305 1.818600
						CHANNELS 3 Xrotation Yrotation Zrotation
						JOINT LeftForeArm
						{
							OFFSET 49.290169 0.000000 0.000000
							CHANNELS 3 Xrotation Yrotation Zrotation
							JOINT LeftHand
							{
								OFFSET 31.562012 0.000000 0.000000
								CHANNELS 3 Xrotation Yrotation Zrotation
								JOINT LeftHandThumb1
								{
									OFFSET 6.133995 -4.388519 7.076070
									CHANNELS 3 Xrotation Yrotation Zrotation
									JOINT LeftHandThumb2
									{
										OFFSET 6.037666 -3.485840 3.485847
										CHANNELS 3 Xrotation Yrotation Zrotation
										JOINT LeftHandThumb3
										{
											OFFSET 6.496506 -3.750763 3.750761
											CHANNELS 3 Xrotation Yrotation Zrotation
											JOINT LeftHandThumb4
											{
												OFFSET 5.616882 -3.242905 3.242910
												CHANNELS 3 Xrotation Yrotation Zrotation
												End Site
												{
													OFFSET -1.254608 7.132141 0.375429
												}
											}
										}
									}
								}
								JOINT LeftHandPinky1
								{
									OFFSET 18.920792 -0.453171 -11.426712
									CHANNELS 3 Xrotation Yrotation Zrotation
									JOINT LeftHandPinky2
									{
										OFFSET 4.919586 0.000000 0.000000
										CHANNELS 3 Xrotation Yrotation Zrotation
										JOINT LeftHandPinky3
										{
											OFFSET 5.233047 0.000000 0.000000
											CHANNELS 3 Xrotation Yrotation Zrotation
											JOINT LeftHandPinky4
											{
												OFFSET 5.571716 0.000000 0.000000
												CHANNELS 3 Xrotation Yrotation Zrotation
												End Site
												{
													OFFSET -3.459808 4.342407 -0.466164
												}
											}
										}
									}
								}
								JOINT LeftHandRing1
								{
									OFFSET 22.726120 -0.094986 -6.500475
									CHANNELS 3 Xrotation Yrotation Zrotation
									JOINT LeftHandRing2
									{
										OFFSET 6.408615 0.000000 0.000000
										CHANNELS 3 Xrotation Yrotation Zrotation
										JOINT LeftHandRing3
										{
											OFFSET 6.150223 0.000000 0.000000
											CHANNELS 3 Xrotation Yrotation Zrotation
											JOINT LeftHandRing4
											{
												OFFSET 6.145386 0.000000 0.000000
												CHANNELS 3 Xrotation Yrotation Zrotation
												End Site
												{
													OFFSET -3.671402 4.923981 -0.202372
												}
											}
										}
									}
								}
								JOINT LeftHandMiddle1
								{
									OFFSET 23.373947 0.000000 0.000001
									CHANNELS 3 Xrotation Yrotation Zrotation
									JOINT LeftHandMiddle2
									{
										OFFSET 6.996567 0.000000 0.000000
										CHANNELS 3 Xrotation Yrotation Zrotation
										JOINT LeftHandMiddle3
										{
											OFFSET 7.015945 0.000000 0.000000
											CHANNELS 3 Xrotation Yrotation Zrotation
											JOINT LeftHandMiddle4
											{
												OFFSET 7.721573 0.000000 0.000000
												CHANNELS 3 Xrotation Yrotation Zrotation
												End Site
												{
													OFFSET -4.651108 6.158463 0.251582
												}
											}
										}
									}
								}
								JOINT LeftHandIndex1
								{
									OFFSET 21.310577 -0.490082 6.209344
									CHANNELS 3 Xrotation Yrotation Zrotation
									JOINT LeftHandIndex2
									{
										OFFSET 7.536453 0.000000 0.000000
										CHANNELS 3 Xrotation Yrotation Zrotation
										JOINT LeftHandIndex3
										{
											OFFSET 7.512344 0.000000 0.000000
											CHANNELS 3 Xrotation Yrotation Zrotation
											JOINT LeftHandIndex4
											{
												OFFSET 10.212402 0.000000 0.000001
												CHANNELS 3 Xrotation Yrotation Zrotation
												End Site
												{
													OFFSET -5.180801 8.690506 1.388433
												}
											}
										}
									}
								}
							}
						}
					}
				}
				JOINT RightShoulder
				{
					OFFSET -17.399500 24.608795 1.168800
					CHANNELS 3 Xrotation Yrotation Zrotation
					JOINT RightArm
					{
						OFFSET -18.980635 5.765305 1.818600
						CHANNELS 3 Xrotation Yrotation Zrotation
						JOINT RightForeArm
						{
							OFFSET -49.290169 0.000000 0.000000
							CHANNELS 3 Xrotation Yrotation Zrotation
							JOINT RightHand
							{
								OFFSET -31.562012 0.000000 0.000000
								CHANNELS 3 Xrotation Yrotation Zrotation
								JOINT RightHandThumb1
								{
									OFFSET -6.133995 -4.388519 7.076070
									CHANNELS 3 Xrotation Yrotation Zrotation
									JOINT RightHandThumb2
									{
										OFFSET -6.037666 -3.485840 3.485847
										CHANNELS 3 Xrotation Yrotation Zrotation
										JOINT RightHandThumb3
										{
											OFFSET -6.496506 -3.750763 3.750761
											CHANNELS 3 Xrotation Yrotation Zrotation
											JOINT RightHandThumb4
											{
												OFFSET -5.616882 -3.242905 3.242910
												CHANNELS 3 Xrotation Yrotation Zrotation
												End Site
												{
													OFFSET 1.254608 7.132141 0.375429
												}
											}
										}
									}
								}
								JOINT RightHandIndex1
								{
									OFFSET -21.310577 -0.490082 6.209344
									CHANNELS 3 Xrotation Yrotation Zrotation
									JOINT RightHandIndex2
									{
										OFFSET -7.536453 0.000000 0.000000
										CHANNELS 3 Xrotation Yrotation Zrotation
										JOINT RightHandIndex3
										{
											OFFSET -7.512344 0.000000 0.000000
											CHANNELS 3 Xrotation Yrotation Zrotation
											JOINT RightHandIndex4
											{
												OFFSET -10.212402 0.000000 0.000001
												CHANNELS 3 Xrotation Yrotation Zrotation
												End Site
												{
													OFFSET 5.180801 8.690506 1.388433
												}
											}
										}
									}
								}
								JOINT RightHandMiddle1
								{
									OFFSET -23.373947 0.000000 0.000001
									CHANNELS 3 Xrotation Yrotation Zrotation
									JOINT RightHandMiddle2
									{
										OFFSET -6.996567 0.000000 0.000000
										CHANNELS 3 Xrotation Yrotation Zrotation
										JOINT RightHandMiddle3
										{
											OFFSET -7.015945 0.000000 0.000000
											CHANNELS 3 Xrotation Yrotation Zrotation
											JOINT RightHandMiddle4
											{
												OFFSET -7.721573 0.000000 0.000000
												CHANNELS 3 Xrotation Yrotation Zrotation
												End Site
												{
													OFFSET 4.651108 6.158463 0.251582
												}
											}
										}
									}
								}
								JOINT RightHandRing1
								{
									OFFSET -22.726120 -0.094986 -6.500475
									CHANNELS 3 Xrotation Yrotation Zrotation
									JOINT RightHandRing2
									{
										OFFSET -6.408615 0.000000 0.000000
										CHANNELS 3 Xrotation Yrotation Zrotation
										JOINT RightHandRing3
										{
											OFFSET -6.150223 0.000000 0.000000
											CHANNELS 3 Xrotation Yrotation Zrotation
											JOINT RightHandRing4
											{
												OFFSET -6.145386 0.000000 0.000000
												CHANNELS 3 Xrotation Yrotation Zrotation
												End Site
												{
													OFFSET 3.671402 4.923981 -0.202372
												}
											}
										}
									}
								}
								JOINT RightHandPinky1
								{
									OFFSET -18.920792 -0.453171 -11.426712
									CHANNELS 3 Xrotation Yrotation Zrotation
									JOINT RightHandPinky2
									{
										OFFSET -4.919586 0.000000 0.000000
										CHANNELS 3 Xrotation Yrotation Zrotation
										JOINT RightHandPinky3
										{
											OFFSET -5.233047 0.000000 0.000000
											CHANNELS 3 Xrotation Yrotation Zrotation
											JOINT RightHandPinky4
											{
												OFFSET -5.571716 0.000000 0.000000
												CHANNELS 3 Xrotation Yrotation Zrotation
												End Site
												{
													OFFSET 3.459808 4.342407 -0.466164
												}
											}
										}
									}
								}
							}
						}
					}
				}
			}
		}
	}
	JOINT LeftUpLeg
	{
		OFFSET 19.899099 -7.885101 -3.429500
		CHANNELS 3 Xrotation Yrotation Zrotation
		JOINT LeftLeg
		{
			OFFSET 1.745560 -36.997807 10.304700
			CHANNELS 3 Xrotation Yrotation Zrotation
			JOINT LeftFoot
			{
				OFFSET -1.745558 -29.803308 -13.615400
				CHANNELS 3 Xrotation Yrotation Zrotation
				JOINT LeftToeBase
				{
					OFFSET 1.181900 -18.539904 15.226099
					CHANNELS 3 Xrotation Yrotation Zrotation
					JOINT LeftToe_End
					{
						OFFSET -0.863701 1.402801 16.534700
						CHANNELS 3 Xrotation Yrotation Zrotation
						End Site
						{
							OFFSET 0.000000 16.616566 0.000000
						}
					}
				}
			}
		}
	}
	JOINT RightUpLeg
	{
		OFFSET -19.899099 -7.885101 -3.429500
		CHANNELS 3 Xrotation Yrotation Zrotation
		JOINT RightLeg
		{
			OFFSET -1.745560 -36.997807 10.304700
			CHANNELS 3 Xrotation Yrotation Zrotation
			JOINT RightFoot
			{
				OFFSET 1.745558 -29.803308 -13.615400
				CHANNELS 3 Xrotation Yrotation Zrotation
				JOINT RightToeBase
				{
					OFFSET -1.181900 -18.539904 15.226099
					CHANNELS 3 Xrotation Yrotation Zrotation
					JOINT RightToe_End
					{
						OFFSET 0.863701 1.402801 16.534700
						CHANNELS 3 Xrotation Yrotation Zrotation
						End Site
						{
							OFFSET 0.000000 16.616566 0.000000
						}
					}
				}
			}
		}
	}
}
MOTION
Frames: 5
Frame Time: 0.033333
0.800213 35.749451 -16.844120 0.292106 0.582801 0.796665 1.230754 0.402457 -0.032876 0.109968 0.089115 -0.090372 0.109889 0.092387 -0.088837 -0.391164 -0.005307 0.119094 -1.124874 0.490781 0.198152 0.000000 0.000000 -0.000000 0.606873 -3.284650 -22.051942 11.515127 -16.420256 -52.959562 0.000016 -20.359764 0.000014 -6.755145 11.933913 -5.300450 -8.149924 -14.753825 10.513247 11.519496 33.944889 -1.835897 3.772848 9.825377 17.852673 -0.000004 -0.000003 -0.000003 -7.733308 8.983528 -14.644035 0.588628 2.561286 -25.881738 0.348028 1.990906 -19.829228 -0.000000 -0.000002 -0.000002 -0.151948 2.808044 -20.131954 0.105342 1.107135 -10.870268 0.129417 1.225819 -12.052461 -0.000003 -0.000001 0.000003 -0.402230 -0.925069 -7.467156 1.035722 3.327681 -34.568554 0.002797 -0.181196 1.768569 -0.000001 -0.000001 0.000002 -0.454532 -5.324391 -4.188056 0.332391 1.947028 -19.374098 0.050354 0.767300 -7.509486 0.000001 0.000003 0.000002 -0.115549 9.905206 22.055400 7.750440 7.038407 56.271979 0.000004 19.886644 -0.000013 -2.747032 -6.054056 1.890114 -17.666148 6.245686 -1.516284 -4.151490 -35.474985 -9.895073 3.020224 -18.519841 -20.320033 -0.000002 0.000001 -0.000000 13.507009 5.012558 9.945623 0.129480 -1.091628 13.527182 0.009099 0.291339 -3.578678 -0.000003 -0.000001 -0.000001 -0.134013 -1.082774 7.058464 0.786469 -2.591750 33.756134 0.124065 -1.068901 13.240377 0.000002 0.000003 -0.000004 0.544695 -5.217175 11.264045 0.534416 -2.168002 27.691757 0.311102 -1.675180 21.039351 -0.000002 0.000000 -0.000007 -12.482408 -16.716169 10.990289 0.316052 -1.688027 21.208480 0.313454 -1.681290 21.119770 -0.000000 -0.000001 -0.000001 -2.927231 -8.951875 26.017189 102.422320 -5.010380 -5.006150 22.882189 -1.265004 -19.667793 12.692997 12.417620 51.838387 0.000008 -0.000000 -0.000001 -0.842519 3.142447 -22.535156 103.216350 11.236904 4.654223 13.620873 0.760709 13.707868 -4.425988 -26.516982 -55.117912 0.000001 0.000001 -0.000000 
0.829481 35.736549 -16.857992 0.317582 0.593781 0.790546 1.280334 0.417228 -0.039076 0.133204 0.089115 -0.090372 0.068815 0.092387 -0.100713 -0.164990 -0.005307 0.121232 0.901105 0.544745 -0.057561 0.000000 -0.000000 -0.000000 0.692562 -3.378091 -21.548186 12.212824 -16.187396 -53.159871 -0.000005 -22.544100 -0.000034 -5.733289 12.047947 -5.480646 -8.099337 -14.836923 10.652897 12.121465 34.333797 -2.260053 3.835713 9.824401 17.606751 0.000001 0.000001 -0.000003 -7.388613 8.871909 -15.554048 0.628112 2.641034 -26.751799 0.336801 1.959524 -19.503511 0.000002 0.000001 -0.000004 0.009436 3.279740 -20.613496 0.115898 1.160760 -11.403659 0.129497 1.226197 -12.056227 -0.000001 0.000000 0.000003 -0.399441 -0.372831 -8.519251 0.996032 3.269430 -33.878718 0.001468 -0.131181 1.280225 -0.000001 -0.000002 0.000004 -0.501710 -4.688940 -5.319810 0.335103 1.954714 -19.453787 0.052104 0.780452 -7.638912 -0.000001 0.000001 0.000002 -0.111860 9.911650 22.030627 8.178184 6.921493 56.279693 0.000002 21.269680 0.000006 -2.871997 -5.727417 1.713519 -17.666132 6.245679 -1.516305 -4.102228 -35.562876 -9.873680 3.176557 -18.711365 -20.173628 -0.000000 0.000002 0.000002 13.114800 5.058852 10.178890 0.134216 -1.111150 13.774058 0.007157 0.258283 -3.172154 -0.000003 -0.000001 -0.000001 -0.150162 -1.062137 7.485774 0.778476 -2.579754 33.578900 0.123839 -1.067969 13.228769 -0.000001 0.000000 -0.000008 0.551512 -5.169903 11.726089 0.512126 -2.125034 27.096827 0.314247 -1.683341 21.146817 -0.000002 0.000001 -0.000003 -12.467581 -16.609082 11.191518 0.314930 -1.685120 21.170192 0.307527 -1.665880 20.917000 -0.000000 -0.000001 -0.000001 -2.150671 -10.467956 26.572151 102.225044 -5.927448 -6.487241 22.862460 -1.171169 -19.812164 12.665342 12.378407 51.831297 0.000001 -0.000000 -0.000001 -1.233826 2.432456 -22.345408 103.394857 10.888408 3.935635 13.656636 0.764827 13.698609 -4.509261 -26.531472 -55.222120 -0.000002 0.000001 0.000000 
0.854793 35.725388 -16.868771 0.344132 0.612836 0.795523 1.312093 0.433956 -0.048030 0.150815 0.089114 -0.090372 -0.050496 0.102052 -0.133755 0.039539 -0.005307 0.149224 2.833889 0.606266 -0.327929 -0.000000 -0.000000 -0.000000 0.776975 -3.468478 -21.064464 13.016801 -15.876836 -53.337415 -0.000004 -24.756979 -0.000034 -4.719291 12.183959 -5.655054 -8.013542 -14.900408 10.773466 12.769075 34.721745 -2.746021 3.906212 9.780707 17.305001 -0.000002 0.000001 -0.000008 -7.023850 8.691888 -16.510063 0.671573 2.725454 -27.680160 0.327471 1.932988 -19.228789 -0.000000 0.000003 0.000003 0.181649 3.755408 -21.072472 0.124841 1.204202 -11.836833 0.131970 1.237762 -12.171655 -0.000000 0.000000 0.000005 -0.374694 0.196533 -9.563287 0.957280 3.211051 -33.193046 0.000413 -0.069876 0.681883 0.000001 -0.000000 0.000009 -0.532974 -4.030073 -6.411409 0.339564 1.967289 -19.584032 0.054494 0.798005 -7.811927 -0.000001 0.000001 0.000001 -0.100707 9.936770 21.960397 8.540977 7.126630 56.180522 -0.000000 22.729707 0.000025 -3.122478 -5.011140 1.323896 -17.666132 6.245684 -1.516312 -4.043018 -35.671230 -9.848272 3.319696 -18.889105 -20.046031 -0.000001 0.000004 -0.000000 12.725633 5.137300 10.374002 0.139679 -1.133236 14.053420 0.005364 0.223509 -2.744955 -0.000004 0.000001 0.000001 -0.169095 -1.017954 7.882876 0.772274 -2.570392 33.440832 0.124104 -1.069096 13.242913 0.000001 0.000003 -0.000004 0.548592 -5.088537 12.150895 0.489891 -2.081013 26.490645 0.317363 -1.691375 21.252689 -0.000001 -0.000000 -0.000003 -12.459722 -16.479587 11.387372 0.314278 -1.683440 21.148081 0.301606 -1.650312 20.712385 -0.000002 -0.000000 0.000002 -1.400239 -11.920939 27.122625 102.001089 -6.802774 -7.906712 22.864909 -1.079590 -19.954828 12.623335 12.323618 51.831584 0.000004 -0.000002 -0.000001 -1.447042 2.063078 -22.270964 103.487365 10.727394 3.568799 13.679457 0.761192 13.695168 -4.517817 -26.538859 -55.234869 -0.000001 -0.000000 -0.000001 
0.878521 35.716202 -16.877405 0.370776 0.631801 0.801357 1.342373 0.451349 -0.057777 0.167956 0.089115 -0.090372 -0.246531 0.114797 -0.180944 0.243173 -0.016972 0.204101 4.744138 0.674849 -0.597805 -0.000000 0.000000 0.000000 0.869998 -3.564140 -20.532116 13.733213 -15.631890 -53.596385 0.000011 -26.734855 -0.000012 -3.605377 12.146506 -5.828617 -7.889828 -14.946061 10.876748 13.460143 35.115283 -3.287020 3.978488 9.694829 16.967737 0.000001 0.000002 -0.000001 -6.642978 8.454282 -17.528521 0.718727 2.813413 -28.656018 0.320013 1.911472 -19.006323 0.000001 0.000001 0.000001 0.362779 4.231830 -21.557004 0.133441 1.244556 -12.239425 0.136676 1.259328 -12.387182 0.000001 -0.000001 0.000005 -0.327641 0.790006 -10.639064 0.919441 3.152553 -32.511537 -0.000001 0.001442 -0.014093 0.000001 0.000001 0.000009 -0.544292 -3.340916 -7.495467 0.345611 1.984178 -19.759263 0.057519 0.819807 -8.026666 -0.000003 0.000002 -0.000003 -0.090223 9.973084 21.850076 8.788514 7.647609 55.974862 0.000004 24.160706 -0.000012 -3.415629 -4.151228 0.861908 -17.666141 6.245688 -1.516285 -3.974598 -35.798302 -9.818869 3.450662 -19.054353 -19.935867 0.000001 -0.000001 -0.000001 12.338980 5.245713 10.534872 0.145864 -1.157632 14.362554 0.003758 0.187203 -2.298733 -0.000001 -0.000003 -0.000001 -0.191005 -0.952252 8.252387 0.767695 -2.563459 33.338618 0.124811 -1.072088 13.280616 -0.000001 0.000002 -0.000004 0.536137 -4.976110 12.541647 0.467750 -2.035996 25.874164 0.320457 -1.699308 21.357146 -0.000002 -0.000001 -0.000003 -12.458222 -16.329674 11.579509 0.314037 -1.682810 21.139803 0.295693 -1.634594 20.506033 0.000000 0.000000 -0.000003 -0.661475 -13.319718 27.674045 101.754109 -7.643659 -9.282538 22.876561 -0.988511 -20.095733 12.581153 12.268272 51.830064 0.000002 -0.000001 -0.000001 -1.651598 1.704685 -22.199795 103.574040 10.569474 3.214980 13.695079 0.758041 13.691874 -4.526411 -26.551261 -55.257894 0.000002 0.000000 0.000002 
0.901173 35.707191 -16.887333 0.396726 0.645628 0.806748 1.384677 0.469192 -0.067537 0.188885 0.089115 -0.090372 -0.505040 0.129565 -0.236756 0.462878 -0.032418 0.276477 6.692953 0.739368 -0.856591 0.000000 0.000000 -0.000000 0.979241 -3.673053 -19.898561 14.273934 -15.524373 -53.999370 0.000014 -28.430208 0.000013 -2.365646 11.822056 -5.975167 -7.733162 -14.976322 10.964550 14.192497 35.521003 -3.876752 4.046866 9.567640 16.614684 -0.000003 0.000004 -0.000004 -6.250164 8.169465 -18.626004 0.769241 2.903815 -29.668774 0.314406 1.895137 -18.837585 -0.000000 0.000001 0.000001 0.552172 4.705220 -22.115355 0.143216 1.288750 -12.681496 0.143427 1.289714 -12.691087 0.000000 0.000001 0.000003 -0.255993 1.414478 -11.786497 0.882537 3.093965 -31.834057 0.000565 0.081492 -0.795290 -0.000002 -0.000002 0.000004 -0.530599 -2.614746 -8.604595 0.353079 2.004850 -19.974028 0.061224 0.845616 -8.281353 0.000001 0.000001 0.000001 -0.079046 10.019380 21.705113 8.927817 8.441435 55.660745 0.000006 25.585615 0.000036 -3.727783 -3.164970 0.344025 -17.666136 6.245685 -1.516310 -3.897732 -35.942347 -9.785634 3.570587 -19.208348 -19.841549 -0.000005 0.000001 -0.000001 11.954392 5.381767 10.665337 0.152734 -1.184127 14.698721 0.002394 0.149495 -1.835255 -0.000002 0.000000 0.000001 -0.215934 -0.867051 8.596791 0.764583 -2.558723 33.269018 0.125921 -1.076773 13.339741 -0.000000 0.000000 -0.000004 0.514534 -4.835612 12.901462 0.445769 -1.990060 25.248254 0.323521 -1.707114 21.460321 -0.000002 -0.000000 -0.000003 -12.463808 -16.161020 11.762370 0.314306 -1.683504 21.148943 0.289787 -1.618734 20.298137 0.000000 -0.000001 -0.000001 0.081510 -14.685016 28.238172 101.484925 -8.470382 -10.641176 22.892248 -0.892604 -20.238373 12.537750 12.211132 51.827110 0.000003 -0.000001 0.000000 -1.858148 1.360086 -22.130595 103.661740 10.413291 2.868486 13.713596 0.755623 13.688525 -4.535278 -26.563661 -55.281256 -0.000003 -0.000003 -0.000001 
